<svg data-v-423bf9ae="" xmlns="http://www.w3.org/2000/svg" viewBox="0 0 372.270170748858 60" class="font"><!----><!----><!----><g data-v-423bf9ae="" id="eb5d9526-e61f-410a-a987-5898922f78ba" fill="white" transform="matrix(5.628517904206723,0,0,5.628517904206723,-4.390249556408378,-21.72608033856332)"><path d="M6.23 14.35L7.62 14.35L7.62 4.58L5.81 4.58L4.30 8.46L4.20 8.46L2.70 4.58L0.78 4.58L0.78 14.35L2.17 14.35L2.17 9.67L2.13 6.73L2.24 6.73L4.20 11.76L6.16 6.73L6.27 6.73L6.23 9.67ZM16.23 14.35L16.23 13.15L15.32 13.15L15.32 9.52C15.32 7.87 14.20 6.96 12.38 6.96C10.85 6.96 9.87 7.62 9.46 8.40L10.37 9.14C10.77 8.54 11.31 8.15 12.24 8.15C13.27 8.15 13.79 8.65 13.79 9.62L13.79 10.18L12.40 10.18C10.26 10.18 9.24 10.93 9.24 12.33C9.24 13.69 10.19 14.52 11.66 14.52C12.80 14.52 13.55 14 13.83 13.13L13.90 13.13C13.99 13.86 14.42 14.35 15.29 14.35ZM12.10 13.40C11.28 13.40 10.78 13.06 10.78 12.42L10.78 12.14C10.78 11.49 11.31 11.14 12.43 11.14L13.79 11.14L13.79 12.19C13.79 12.91 13.08 13.40 12.10 13.40ZM21.94 14.35L24.53 7.13L23.00 7.13L22.01 10.18L21.07 13.08L20.99 13.08L20.05 10.18L19.05 7.13L17.47 7.13L20.06 14.35ZM29.55 14.52C31.04 14.52 32.05 13.86 32.54 13.02L31.58 12.18C31.18 12.85 30.51 13.29 29.58 13.29C28.34 13.29 27.58 12.49 27.58 11.35L27.58 11.12L32.76 11.12L32.76 10.54C32.76 8.41 31.47 6.96 29.44 6.96C27.38 6.96 26.04 8.43 26.04 10.75C26.04 13.05 27.34 14.52 29.55 14.52ZM29.44 8.12C30.51 8.12 31.21 8.86 31.21 10.00L31.21 10.14L27.58 10.14L27.58 10.04C27.58 8.92 28.35 8.12 29.44 8.12ZM34.66 14.35L40.73 14.35L40.73 13.12L38.11 13.12L38.11 10.42C38.11 9.41 38.77 8.58 40.01 8.58L41.44 8.58L41.44 7.13L40.57 7.13C39.10 7.13 38.47 8.04 38.19 9.04L38.11 9.04L38.11 7.13L34.66 7.13L34.66 8.36L36.58 8.36L36.58 13.12L34.66 13.12ZM46.65 5.81C47.40 5.81 47.68 5.45 47.68 4.98L47.68 4.69C47.68 4.23 47.40 3.86 46.63 3.86C45.88 3.86 45.60 4.23 45.60 4.69L45.60 4.98C45.60 5.45 45.88 5.81 46.65 5.81ZM43.41 14.35L49.71 14.35L49.71 13.12L47.40 13.12L47.40 7.13L43.41 7.13L43.41 8.36L45.88 8.36L45.88 13.12L43.41 13.12ZM54.87 14.52C56.38 14.52 57.32 13.80 57.78 12.80L56.66 12.11C56.32 12.81 55.78 13.26 54.88 13.26C53.69 13.26 53.03 12.47 53.03 11.34L53.03 10.14C53.03 8.99 53.70 8.22 54.85 8.22C55.69 8.22 56.22 8.64 56.48 9.31L57.67 8.67C57.22 7.66 56.34 6.96 54.85 6.96C52.72 6.96 51.44 8.43 51.44 10.74C51.44 13.05 52.71 14.52 54.87 14.52ZM60.03 14.35L61.56 14.35L61.56 11.77L62.57 10.84L65.09 14.35L66.92 14.35L63.67 9.97L66.60 7.13L64.79 7.13L62.76 9.09L61.63 10.25L61.56 10.25L61.56 3.99L60.03 3.99Z"></path></g><!----><!----></svg>