<svg data-v-423bf9ae="" xmlns="http://www.w3.org/2000/svg" viewBox="0 0 457 90" class="iconLeftSlogan"><!----><!----><!----><g data-v-423bf9ae="" id="37cb23d1-5242-4be2-91b0-6e8d78f564e9" fill="black" transform="matrix(5.628517904206723,0,0,5.628517904206723,79.88100593675568,-21.72608033856332)"><path d="M6.23 14.35L7.62 14.35L7.62 4.58L5.81 4.58L4.30 8.46L4.20 8.46L2.70 4.58L0.78 4.58L0.78 14.35L2.17 14.35L2.17 9.67L2.13 6.73L2.24 6.73L4.20 11.76L6.16 6.73L6.27 6.73L6.23 9.67ZM16.23 14.35L16.23 13.15L15.32 13.15L15.32 9.52C15.32 7.87 14.20 6.96 12.38 6.96C10.85 6.96 9.87 7.62 9.46 8.40L10.37 9.14C10.77 8.54 11.31 8.15 12.24 8.15C13.27 8.15 13.79 8.65 13.79 9.62L13.79 10.18L12.40 10.18C10.26 10.18 9.24 10.93 9.24 12.33C9.24 13.69 10.19 14.52 11.66 14.52C12.80 14.52 13.55 14 13.83 13.13L13.90 13.13C13.99 13.86 14.42 14.35 15.29 14.35ZM12.10 13.40C11.28 13.40 10.78 13.06 10.78 12.42L10.78 12.14C10.78 11.49 11.31 11.14 12.43 11.14L13.79 11.14L13.79 12.19C13.79 12.91 13.08 13.40 12.10 13.40ZM21.94 14.35L24.53 7.13L23.00 7.13L22.01 10.18L21.07 13.08L20.99 13.08L20.05 10.18L19.05 7.13L17.47 7.13L20.06 14.35ZM29.55 14.52C31.04 14.52 32.05 13.86 32.54 13.02L31.58 12.18C31.18 12.85 30.51 13.29 29.58 13.29C28.34 13.29 27.58 12.49 27.58 11.35L27.58 11.12L32.76 11.12L32.76 10.54C32.76 8.41 31.47 6.96 29.44 6.96C27.38 6.96 26.04 8.43 26.04 10.75C26.04 13.05 27.34 14.52 29.55 14.52ZM29.44 8.12C30.51 8.12 31.21 8.86 31.21 10.00L31.21 10.14L27.58 10.14L27.58 10.04C27.58 8.92 28.35 8.12 29.44 8.12ZM34.66 14.35L40.73 14.35L40.73 13.12L38.11 13.12L38.11 10.42C38.11 9.41 38.77 8.58 40.01 8.58L41.44 8.58L41.44 7.13L40.57 7.13C39.10 7.13 38.47 8.04 38.19 9.04L38.11 9.04L38.11 7.13L34.66 7.13L34.66 8.36L36.58 8.36L36.58 13.12L34.66 13.12ZM46.65 5.81C47.40 5.81 47.68 5.45 47.68 4.98L47.68 4.69C47.68 4.23 47.40 3.86 46.63 3.86C45.88 3.86 45.60 4.23 45.60 4.69L45.60 4.98C45.60 5.45 45.88 5.81 46.65 5.81ZM43.41 14.35L49.71 14.35L49.71 13.12L47.40 13.12L47.40 7.13L43.41 7.13L43.41 8.36L45.88 8.36L45.88 13.12L43.41 13.12ZM54.87 14.52C56.38 14.52 57.32 13.80 57.78 12.80L56.66 12.11C56.32 12.81 55.78 13.26 54.88 13.26C53.69 13.26 53.03 12.47 53.03 11.34L53.03 10.14C53.03 8.99 53.70 8.22 54.85 8.22C55.69 8.22 56.22 8.64 56.48 9.31L57.67 8.67C57.22 7.66 56.34 6.96 54.85 6.96C52.72 6.96 51.44 8.43 51.44 10.74C51.44 13.05 52.71 14.52 54.87 14.52ZM60.03 14.35L61.56 14.35L61.56 11.77L62.57 10.84L65.09 14.35L66.92 14.35L63.67 9.97L66.60 7.13L64.79 7.13L62.76 9.09L61.63 10.25L61.56 10.25L61.56 3.99L60.03 3.99Z"></path></g><!----><g data-v-423bf9ae="" id="48c8b6a9-1051-4976-8921-b548beb48c91" transform="matrix(2.8125,0,0,2.8125,-12.426001459360123,0)" stroke="none" fill="black"><path d="M27.377 11.377L16 0 4.623 11.377 16 22.753l11.377-11.376zM16 6.026l5.35 5.35L16 16.727l-5.35-5.35L16 6.026zM27.426 14.969l-5.664 5.664V32h5.664zM10.238 20.633l-5.664-5.664V32h5.664z"></path></g><!----><g data-v-423bf9ae="" id="41d4cd50-492a-4bee-9fb6-abe4cf9a5980" fill="black" transform="matrix(3.068055398530778,0,0,3.068055398530778,83.3201544377531,42.88025256603838)"><path d="M3.14 14.40L0.31 14.40L0.35 14.17L1.49 13.96L2.06 6.36L0.80 6.14L0.85 5.89L3.03 5.89L3.51 7.18L5.66 12.84L8.11 6.88L8.52 5.89L10.75 5.89L10.72 6.14L9.54 6.34L9.92 14.01L11.15 14.12L11.14 14.40L7.98 14.40L8.02 14.17L9.19 13.96L8.80 6.41L5.62 13.99L5.28 14.05L2.49 6.53L1.95 14.01L3.19 14.12L3.14 14.40ZM19.54 13.04L19.54 13.04L19.54 13.04Q19.54 13.47 19.80 13.79L19.80 13.79L19.80 13.79Q20.06 14.10 20.50 14.10L20.50 14.10L20.50 14.10Q20.97 14.10 21.37 13.83L21.37 13.83L21.37 13.83Q21.77 13.56 22.03 13.13L22.03 13.13L22.03 11.44L22.03 11.44Q21.57 11.51 21.24 11.58L21.24 11.58L21.24 11.58Q20.90 11.66 20.57 11.78L20.57 11.78L20.57 11.78Q20.23 11.90 20.02 12.06L20.02 12.06L20.02 12.06Q19.81 12.22 19.68 12.47L19.68 12.47L19.68 12.47Q19.54 12.72 19.54 13.04ZM18.86 13.24L18.86 13.24L18.86 13.24Q18.86 12.37 19.66 11.80L19.66 11.80L19.66 11.80Q20.45 11.23 22.03 11.14L22.03 11.14L22.03 10.87L22.03 10.87Q22.03 9.74 21.75 9.25L21.75 9.25L21.75 9.25Q21.48 8.75 20.72 8.75L20.72 8.75L20.72 8.75Q20.20 8.75 19.97 9.13L19.97 9.13L19.97 9.13Q19.74 9.52 19.65 10.23L19.65 10.23L19.65 10.23Q19.41 10.23 19.25 10.11L19.25 10.11L19.25 10.11Q19.09 9.99 19.09 9.78L19.09 9.78L19.09 9.78Q19.09 9.26 19.73 8.83L19.73 8.83L19.73 8.83Q20.37 8.40 21.08 8.40L21.08 8.40L21.08 8.40Q21.88 8.40 22.26 8.91L22.26 8.91L22.26 8.91Q22.64 9.43 22.64 10.51L22.64 10.51L22.64 12.83L22.64 12.83Q22.64 13.03 22.64 13.14L22.64 13.14L22.64 13.14Q22.65 13.24 22.66 13.40L22.66 13.40L22.66 13.40Q22.68 13.56 22.72 13.64L22.72 13.64L22.72 13.64Q22.76 13.73 22.82 13.83L22.82 13.83L22.82 13.83Q22.89 13.92 22.99 13.98L22.99 13.98L22.99 13.98Q23.10 14.03 23.24 14.05L23.24 14.05L23.69 14.14L23.66 14.38L23.66 14.38Q23.34 14.52 22.97 14.52L22.97 14.52L22.97 14.52Q22.57 14.52 22.34 14.25L22.34 14.25L22.34 14.25Q22.11 13.99 22.11 13.60L22.11 13.60L22.11 13.51L22.08 13.51L22.08 13.51Q21.95 13.88 21.44 14.23L21.44 14.23L21.44 14.23Q20.93 14.57 20.28 14.57L20.28 14.57L20.28 14.57Q19.71 14.57 19.28 14.21L19.28 14.21L19.28 14.21Q18.86 13.84 18.86 13.24ZM32.20 9.05L31.37 8.84L31.40 8.60L33.89 8.60L33.87 8.82L32.87 9.04L34.45 13.51L36.04 9.05L34.95 8.84L35 8.60L37.28 8.60L37.24 8.82L36.50 9.04L34.51 14.47L34.17 14.57L32.20 9.05ZM45.72 11.03L45.72 11.03L48.36 10.88L48.36 10.88Q48.43 10.75 48.43 10.26L48.43 10.26L48.43 10.26Q48.43 9.65 48.08 9.23L48.08 9.23L48.08 9.23Q47.72 8.80 47.21 8.80L47.21 8.80L47.21 8.80Q46.53 8.80 46.13 9.39L46.13 9.39L46.13 9.39Q45.72 9.98 45.72 11.03ZM45.00 11.59L45.00 11.59L45.00 11.59Q45.00 10.12 45.75 9.27L45.75 9.27L45.75 9.27Q46.50 8.42 47.54 8.42L47.54 8.42L47.54 8.42Q48.32 8.42 48.73 8.90L48.73 8.90L48.73 8.90Q49.13 9.37 49.13 10.42L49.13 10.42L49.13 10.42Q49.13 10.82 49.01 11.31L49.01 11.31L45.71 11.36L45.71 11.36Q45.71 11.94 45.82 12.42L45.82 12.42L45.82 12.42Q45.94 12.89 46.18 13.26L46.18 13.26L46.18 13.26Q46.42 13.62 46.81 13.83L46.81 13.83L46.81 13.83Q47.20 14.03 47.72 14.03L47.72 14.03L47.72 14.03Q48.62 14.03 49.20 13.46L49.20 13.46L49.31 13.69L49.31 13.69Q49.01 14.10 48.49 14.35L48.49 14.35L48.49 14.35Q47.98 14.59 47.33 14.59L47.33 14.59L47.33 14.59Q46.30 14.59 45.65 13.83L45.65 13.83L45.65 13.83Q45.00 13.07 45.00 11.59ZM60.28 14.40L57.03 14.40L57.06 14.19L58.13 14.01L58.13 9.02L57.06 8.83L57.08 8.63L58.67 8.50L58.73 8.56L58.67 10.34L58.73 10.34L58.73 10.34Q58.97 9.46 59.41 8.91L59.41 8.91L59.41 8.91Q59.86 8.37 60.40 8.37L60.40 8.37L60.40 8.37Q60.73 8.37 60.92 8.51L60.92 8.51L60.92 8.51Q61.11 8.66 61.11 8.89L61.11 8.89L61.11 8.89Q61.11 9.01 61.02 9.15L61.02 9.15L61.02 9.15Q60.93 9.29 60.79 9.38L60.79 9.38L60.79 9.38Q60.61 9.17 60.45 9.09L60.45 9.09L60.45 9.09Q60.29 9.00 60.07 9.00L60.07 9.00L60.07 9.00Q59.80 9.00 59.58 9.22L59.58 9.22L59.58 9.22Q59.35 9.44 59.20 9.82L59.20 9.82L59.20 9.82Q59.04 10.19 58.94 10.61L58.94 10.61L58.94 10.61Q58.84 11.02 58.78 11.50L58.78 11.50L58.78 14.02L60.33 14.15L60.28 14.40ZM69.75 6.24L69.75 6.24L69.75 6.24Q69.75 5.58 70.18 5.58L70.18 5.58L70.18 5.58Q70.62 5.58 70.62 6.24L70.62 6.24L70.62 6.24Q70.62 6.94 70.18 6.94L70.18 6.94L70.18 6.94Q69.75 6.94 69.75 6.24ZM71.54 14.40L68.77 14.40L68.86 14.18L69.88 13.99L69.88 9.01L68.84 8.82L68.86 8.63L70.47 8.50L70.53 8.56L70.53 13.99L71.62 14.17L71.54 14.40ZM79.34 11.70L79.34 11.70L79.34 11.70Q79.34 10.20 80.06 9.31L80.06 9.31L80.06 9.31Q80.77 8.42 81.90 8.42L81.90 8.42L81.90 8.42Q82.69 8.42 83.05 8.76L83.05 8.76L83.05 8.76Q83.41 9.10 83.41 9.57L83.41 9.57L83.41 9.57Q83.41 10.08 82.97 10.21L82.97 10.21L82.97 10.21Q82.72 9.49 82.41 9.16L82.41 9.16L82.41 9.16Q82.09 8.84 81.57 8.84L81.57 8.84L81.57 8.84Q80.92 8.84 80.47 9.48L80.47 9.48L80.47 9.48Q80.02 10.12 80.02 11.30L80.02 11.30L80.02 11.30Q80.02 14.09 81.97 14.09L81.97 14.09L81.97 14.09Q82.43 14.09 82.87 13.89L82.87 13.89L82.87 13.89Q83.30 13.69 83.58 13.41L83.58 13.41L83.70 13.64L83.70 13.64Q83.45 14.03 82.87 14.31L82.87 14.31L82.87 14.31Q82.29 14.59 81.64 14.59L81.64 14.59L81.64 14.59Q80.54 14.59 79.94 13.78L79.94 13.78L79.94 13.78Q79.34 12.97 79.34 11.70ZM94.45 12.84L93.33 11.49L93.33 11.38L95.46 9.03L94.55 8.80L94.58 8.57L97.05 8.57L97.00 8.80L95.98 9.02L93.97 11.26L94.79 12.19L94.79 12.19Q94.95 12.37 95.25 12.71L95.25 12.71L95.25 12.71Q95.54 13.05 95.63 13.15L95.63 13.15L95.63 13.15Q95.73 13.25 95.93 13.46L95.93 13.46L95.93 13.46Q96.13 13.67 96.22 13.73L96.22 13.73L96.22 13.73Q96.31 13.79 96.48 13.89L96.48 13.89L96.48 13.89Q96.64 13.99 96.78 14.03L96.78 14.03L96.78 14.03Q96.93 14.06 97.11 14.08L97.11 14.08L97.38 14.11L97.33 14.40L97.33 14.40Q96.99 14.53 96.62 14.53L96.62 14.53L96.62 14.53Q96.11 14.53 95.73 14.23L95.73 14.23L95.73 14.23Q95.35 13.93 94.45 12.84L94.45 12.84ZM94.13 14.40L91.34 14.40L91.40 14.18L92.46 13.99L92.46 6.23L91.41 6.04L91.41 5.84L93.04 5.71L93.08 5.77L93.08 13.99L94.17 14.17L94.13 14.40Z"></path></g></svg>